<svg xmlns="http://www.w3.org/2000/svg" fill="none" viewBox="582.4967750000001 216.75789473684208 1095.815 274.2923976608187" style="max-height: 500px" width="1095.815" height="274.2923976608187">
<path fill="url(#paint0_linear_335_3270)" d="M303 20.7051L373 70.7051C374.6 78.3052 371.333 82.5385 369.5 83.7051L80.5 279.205C78.9 285.605 79.8333 289.538 80.5 290.705L132.5 327.705C137.7 330.105 143.667 328.705 146 327.705L273.5 240.205C278.7 238.205 284.333 240.038 286.5 241.205L509 391.705C512.2 397.705 510.333 403.872 509 406.205L301.5 549.705C295.9 552.105 289.833 550.705 287.5 549.705L218 502.205C215.6 498.205 216.333 491.205 217 488.205L337.5 406.205C338.7 401.005 337 395.372 336 393.205L284.5 357.705C281.3 355.705 275.833 358.538 273.5 360.205L148 444.705C140 447.505 133.333 445.205 131 443.705L0 354.205V216.705L288.5 20.2051C295.3 17.4051 301 19.3718 303 20.7051Z"/>
<path stroke="white" fill="white" d="M284.648 550.781C291.448 553.981 298.148 551.781 300.648 550.281L316.648 539.281L300.648 524.281L274.648 543.781L284.648 550.781Z"/>
<path fill="#2C9086" d="M286.22 550.438C292.048 553.053 297.791 551.255 299.934 550.029L313.648 541.04L299.934 528.781L277.648 544.717L286.22 550.438Z"/>
<path stroke="white" fill="white" d="M217.148 487.781C213.148 492.181 213.482 498.615 214.148 501.281L252.648 528.281L277.648 509.281L235.148 475.781L217.148 487.781Z"/>
<path fill="#2D9087" d="M217.688 489.524C214.12 493.463 214.417 499.223 215.012 501.61L249.351 525.781L271.648 508.772L233.742 478.781L217.688 489.524Z"/>
<path fill="#2D9087" d="M259.327 537.782L280.788 553.44L260.15 570.281L237.789 554.773L259.327 537.782Z"/>
<path fill="#2D9087" d="M236.331 522.665L252.923 534.77L236.968 547.791L219.679 535.801L236.331 522.665Z"/>
<path fill="white" d="M224.854 495.416L244.781 509.954L225.618 525.592L204.855 511.192L224.854 495.416Z"/>
<path fill="#2D9087" d="M225.398 500.289L239.053 510.251L225.922 520.966L211.695 511.099L225.398 500.289Z"/>
<path fill="#E57F3D" d="M425.924 147.924L558.424 240.424L557.924 337.424C551.124 343.424 544.424 343.59 541.924 342.924L343.424 209.424C340.624 203.824 342.591 196.757 343.924 193.924L412.424 147.424C417.624 144.624 423.591 146.591 425.924 147.924Z"/>
<circle fill="white" r="7" cy="201.5" cx="419.422"/>
<path stroke-width="2" stroke="white" d="M421.922 203.678L558.422 300.5"/>
<path stroke="white" fill="white" d="M303 20.7813C296.2 17.5813 289.5 19.7813 287 21.2813L271 32.2812L287 47.2812L313 27.7812L303 20.7813Z"/>
<path fill="#1D6A62" d="M301.429 21.1244C295.6 18.5093 289.857 20.3072 287.714 21.5331L274 30.5227L287.714 42.7812L310 26.8451L301.429 21.1244Z"/>
<path stroke="white" fill="white" d="M370.5 83.7812C374.5 79.3812 374.167 72.9479 373.5 70.2812L335 43.2812L310 62.2812L352.5 95.7812L370.5 83.7812Z"/>
<path fill="#1E6B64" d="M369.961 82.0384C373.529 78.0993 373.231 72.34 372.637 69.9527L338.298 45.7812L316 62.7908L353.906 92.7812L369.961 82.0384Z"/>
<path fill="#1E6B64" d="M328.322 33.78L306.86 18.1228L327.498 1.28125L349.86 16.7891L328.322 33.78Z"/>
<path fill="#1E6B64" d="M351.317 48.8974L334.725 36.7925L350.681 23.7718L367.969 35.7613L351.317 48.8974Z"/>
<path fill="white" d="M362.795 76.1466L342.868 61.6086L362.03 45.9709L382.793 60.3702L362.795 76.1466Z"/>
<path fill="#1E6B64" d="M362.25 71.2736L348.596 61.3118L361.726 50.5964L375.954 60.4632L362.25 71.2736Z"/>
<path fill="#27837A" d="M624.041 276.277C633.562 277.352 641.351 280.818 647.405 286.678C653.851 292.928 657.073 300.594 657.073 309.676V309.896C657.073 319.173 653.899 326.961 647.552 333.26C641.155 339.607 633.367 342.781 624.188 342.781C614.91 342.781 607.122 339.607 600.823 333.26C594.378 326.717 591.155 319.026 591.155 310.188V309.236L602.874 304.109V310.408C602.874 316.268 604.974 321.248 609.173 325.35C613.372 329.5 618.377 331.575 624.188 331.575C630.096 331.575 635.125 329.5 639.275 325.35C643.426 321.15 645.501 316.146 645.501 310.335C645.501 304.231 643.499 299.275 639.495 295.467C634.905 291.121 629.9 288.753 624.48 288.362C615.203 287.63 607.928 284.627 602.654 279.354C597.186 273.934 594.451 267.391 594.451 259.725C594.451 252.01 597.137 245.491 602.508 240.169C607.879 234.798 614.373 232.112 621.99 232.112C629.705 232.112 636.224 234.798 641.546 240.169C646.966 245.638 649.676 252.132 649.676 259.651V260.384L637.957 265.657V259.871C637.859 255.33 636.297 251.57 633.27 248.592C630.096 245.467 626.336 243.904 621.99 243.904C617.645 243.904 613.958 245.418 610.931 248.445C607.806 251.619 606.243 255.379 606.243 259.725C606.243 264.07 607.806 267.806 610.931 270.931C613.86 273.86 618.23 275.643 624.041 276.277Z"/>
<path fill="#27837A" d="M627.041 274.496C636.562 275.57 644.351 279.037 650.405 284.896C656.851 291.146 660.073 298.812 660.073 307.895V308.114C660.073 317.392 656.899 325.18 650.552 331.479C644.155 337.826 636.367 341 627.188 341C617.91 341 610.122 337.826 603.823 331.479C597.378 324.936 594.155 317.245 594.155 308.407V307.455L605.874 302.328V308.627C605.874 314.486 607.974 319.467 612.173 323.568C616.372 327.719 621.377 329.794 627.188 329.794C633.096 329.794 638.125 327.719 642.275 323.568C646.426 319.369 648.501 314.364 648.501 308.554C648.501 302.45 646.499 297.494 642.495 293.686C637.905 289.34 632.9 286.972 627.48 286.581C618.203 285.849 610.928 282.846 605.654 277.572C600.186 272.152 597.451 265.609 597.451 257.943C597.451 250.229 600.137 243.71 605.508 238.388C610.879 233.017 617.373 230.331 624.99 230.331C632.705 230.331 639.224 233.017 644.546 238.388C649.966 243.856 652.676 250.351 652.676 257.87V258.603L640.957 263.876V258.09C640.859 253.549 639.297 249.789 636.27 246.811C633.096 243.686 629.336 242.123 624.99 242.123C620.645 242.123 616.958 243.637 613.931 246.664C610.806 249.838 609.243 253.598 609.243 257.943C609.243 262.289 610.806 266.024 613.931 269.149C616.86 272.079 621.23 273.861 627.041 274.496Z"/>
<path fill="#27837A" d="M808.181 232.458L819.899 227.331V324.816H872.048L866.921 336.535H808.181V232.458ZM930.27 271.496C939.791 272.57 947.579 276.037 953.634 281.896C960.079 288.146 963.302 295.812 963.302 304.895V305.114C963.302 314.392 960.128 322.18 953.78 328.479C947.384 334.826 939.596 338 930.416 338C921.139 338 913.351 334.826 907.052 328.479C900.606 321.936 897.384 314.245 897.384 305.407V304.455L909.103 299.328V305.627C909.103 311.486 911.202 316.467 915.401 320.568C919.601 324.719 924.605 326.794 930.416 326.794C936.324 326.794 941.354 324.719 945.504 320.568C949.654 316.369 951.729 311.364 951.729 305.554C951.729 299.45 949.728 294.494 945.724 290.686C941.134 286.34 936.129 283.972 930.709 283.581C921.432 282.849 914.156 279.846 908.883 274.572C903.414 269.152 900.68 262.609 900.68 254.943C900.68 247.229 903.365 240.71 908.736 235.388C914.107 230.017 920.602 227.331 928.219 227.331C935.934 227.331 942.452 230.017 947.774 235.388C953.194 240.856 955.904 247.351 955.904 254.87V255.603L944.186 260.876V255.09C944.088 250.549 942.525 246.789 939.498 243.811C936.324 240.686 932.564 239.123 928.219 239.123C923.873 239.123 920.187 240.637 917.159 243.664C914.034 246.838 912.472 250.598 912.472 254.943C912.472 259.289 914.034 263.024 917.159 266.149C920.089 269.079 924.459 270.861 930.27 271.496ZM987.539 338V232.458L999.258 227.331V276.843H1041.88V232.458L1053.6 227.331V332.873L1041.88 338V288.562H999.258V332.873L987.539 338ZM1077.77 338V259.924C1077.77 250.939 1080.99 243.273 1087.44 236.926C1093.88 230.529 1101.67 227.331 1110.8 227.331C1119.93 227.331 1127.72 230.529 1134.16 236.926C1140.61 243.273 1143.83 250.939 1143.83 259.924V332.873L1132.11 338V288.562H1089.49V332.873L1077.77 338ZM1089.49 276.843H1132.11V259.704C1132.06 253.845 1129.96 248.864 1125.81 244.763C1121.62 240.612 1116.61 238.537 1110.8 238.537C1104.94 238.537 1099.91 240.612 1095.71 244.763C1091.56 248.864 1089.49 253.771 1089.49 259.484V259.704V276.843Z"/>
<path fill="#27837A" d="M813.181 230.458L824.899 225.331V322.816H877.048L871.921 334.535H813.181V230.458ZM935.27 269.496C944.791 270.57 952.579 274.037 958.634 279.896C965.079 286.146 968.302 293.812 968.302 302.895V303.114C968.302 312.392 965.128 320.18 958.78 326.479C952.384 332.826 944.596 336 935.416 336C926.139 336 918.351 332.826 912.052 326.479C905.606 319.936 902.384 312.245 902.384 303.407V302.455L914.103 297.328V303.627C914.103 309.486 916.202 314.467 920.401 318.568C924.601 322.719 929.605 324.794 935.416 324.794C941.324 324.794 946.354 322.719 950.504 318.568C954.654 314.369 956.729 309.364 956.729 303.554C956.729 297.45 954.728 292.494 950.724 288.686C946.134 284.34 941.129 281.972 935.709 281.581C926.432 280.849 919.156 277.846 913.883 272.572C908.414 267.152 905.68 260.609 905.68 252.943C905.68 245.229 908.365 238.71 913.736 233.388C919.107 228.017 925.602 225.331 933.219 225.331C940.934 225.331 947.452 228.017 952.774 233.388C958.194 238.856 960.904 245.351 960.904 252.87V253.603L949.186 258.876V253.09C949.088 248.549 947.525 244.789 944.498 241.811C941.324 238.686 937.564 237.123 933.219 237.123C928.873 237.123 925.187 238.637 922.159 241.664C919.034 244.838 917.472 248.598 917.472 252.943C917.472 257.289 919.034 261.024 922.159 264.149C925.089 267.079 929.459 268.861 935.27 269.496ZM992.539 336V230.458L1004.26 225.331V274.843H1046.88V230.458L1058.6 225.331V330.873L1046.88 336V286.562H1004.26V330.873L992.539 336ZM1082.77 336V257.924C1082.77 248.939 1085.99 241.273 1092.44 234.926C1098.88 228.529 1106.67 225.331 1115.8 225.331C1124.93 225.331 1132.72 228.529 1139.16 234.926C1145.61 241.273 1148.83 248.939 1148.83 257.924V330.873L1137.11 336V286.562H1094.49V330.873L1082.77 336ZM1094.49 274.843H1137.11V257.704C1137.06 251.845 1134.96 246.864 1130.81 242.763C1126.62 238.612 1121.61 236.537 1115.8 236.537C1109.94 236.537 1104.91 238.612 1100.71 242.763C1096.56 246.864 1094.49 251.771 1094.49 257.484V257.704V274.843Z"/>
<path fill="#E57F3D" d="M695.5 280.5L728 225L752.5 266L695.5 280.5Z"/>
<path fill="#E57F3D" d="M726 285L692.5 285.5L662 338H673.5V330.5L726 285Z"/>
<path fill="#E57F3D" d="M793.5 337.5L762 283.5L707.5 330.5L762.5 329L729 337.5H793.5Z"/>
<path fill="#E57F3D" d="M628.255 483.781V386.296H595.296L600.423 374.577H672.933L667.806 386.296H639.974V478.654L628.255 483.781ZM708.889 434.343V470.598H761.037L755.91 482.316H697.17V379.631L708.889 374.504L751.516 374.577L746.389 386.296H708.889V422.624H751.516L746.389 434.343H708.889ZM847.604 445.109V451.188C847.604 460.173 844.381 467.863 837.936 474.26C831.49 480.607 823.702 483.781 814.571 483.781C805.392 483.781 797.604 480.607 791.207 474.26C784.762 467.863 781.539 460.173 781.539 451.188V405.705C781.539 396.721 784.762 389.055 791.207 382.707C797.652 376.311 805.44 373.112 814.571 373.112C823.8 373.112 831.588 376.311 837.936 382.707C844.381 389.152 847.604 396.818 847.604 405.705V406.364L835.885 411.711V405.485C835.885 399.675 833.785 394.694 829.586 390.544C825.387 386.394 820.382 384.318 814.571 384.318C808.663 384.318 803.634 386.394 799.483 390.544C795.333 394.646 793.258 399.626 793.258 405.485V451.408C793.258 457.219 795.333 462.199 799.483 466.35C803.634 470.5 808.663 472.575 814.571 472.575C820.382 472.575 825.387 470.5 829.586 466.35C833.785 462.248 835.885 457.268 835.885 451.408V450.529L847.604 445.109ZM871.768 483.781V378.239L883.486 373.112V422.624H926.113V378.239L937.832 373.112V478.654L926.113 483.781V434.343H883.486V478.654L871.768 483.781ZM961.996 483.781V405.705C961.996 396.721 965.219 389.055 971.664 382.707C978.109 376.311 985.897 373.112 995.028 373.112C1004.16 373.112 1011.95 376.311 1018.39 382.707C1024.84 389.055 1028.06 396.721 1028.06 405.705V478.654L1016.34 483.781V405.485C1016.29 399.626 1014.19 394.646 1010.04 390.544C1005.84 386.394 1000.84 384.318 995.028 384.318C989.169 384.318 984.14 386.394 979.94 390.544C975.79 394.646 973.715 399.553 973.715 405.266C973.715 405.363 973.715 405.437 973.715 405.485V478.654L961.996 483.781ZM1118.29 405.705C1118.29 405.705 1118.29 420.866 1118.29 451.188C1118.29 460.173 1115.07 467.863 1108.62 474.26C1102.18 480.607 1094.39 483.781 1085.26 483.781C1076.08 483.781 1068.29 480.607 1061.89 474.26C1055.45 467.863 1052.22 460.173 1052.22 451.188V405.705C1052.22 396.721 1055.45 389.055 1061.89 382.707C1068.34 376.311 1076.13 373.112 1085.26 373.112C1094.39 373.112 1102.18 376.311 1108.62 382.707C1115.07 389.055 1118.29 396.721 1118.29 405.705ZM1063.94 405.485V451.408C1063.94 457.219 1066.02 462.199 1070.17 466.35C1074.32 470.5 1079.35 472.575 1085.26 472.575C1091.07 472.575 1096.07 470.5 1100.27 466.35C1104.42 462.248 1106.52 457.268 1106.57 451.408V405.485C1106.52 399.626 1104.42 394.646 1100.27 390.544C1096.07 386.394 1091.07 384.318 1085.26 384.318C1079.35 384.318 1074.32 386.394 1070.17 390.544C1066.02 394.646 1063.94 399.626 1063.94 405.485ZM1143.55 378.239L1155.27 373.112V470.598H1207.42L1202.29 482.316H1143.55V378.239ZM1298.75 405.705C1298.75 405.705 1298.75 420.866 1298.75 451.188C1298.75 460.173 1295.52 467.863 1289.08 474.26C1282.63 480.607 1274.84 483.781 1265.71 483.781C1256.53 483.781 1248.75 480.607 1242.35 474.26C1235.9 467.863 1232.68 460.173 1232.68 451.188V405.705C1232.68 396.721 1235.9 389.055 1242.35 382.707C1248.79 376.311 1256.58 373.112 1265.71 373.112C1274.84 373.112 1282.63 376.311 1289.08 382.707C1295.52 389.055 1298.75 396.721 1298.75 405.705ZM1244.4 405.485V451.408C1244.4 457.219 1246.48 462.199 1250.63 466.35C1254.78 470.5 1259.81 472.575 1265.71 472.575C1271.52 472.575 1276.53 470.5 1280.73 466.35C1284.88 462.248 1286.98 457.268 1287.03 451.408V405.485C1286.98 399.626 1284.88 394.646 1280.73 390.544C1276.53 386.394 1271.52 384.318 1265.71 384.318C1259.81 384.318 1254.78 386.394 1250.63 390.544C1246.48 394.646 1244.4 399.626 1244.4 405.485ZM1388.97 422.624V451.188C1388.97 460.173 1385.75 467.863 1379.31 474.26C1372.86 480.607 1365.07 483.781 1355.94 483.781C1346.76 483.781 1338.97 480.607 1332.58 474.26C1326.13 467.863 1322.91 460.173 1322.91 451.188V405.705C1322.91 396.721 1326.13 389.055 1332.58 382.707C1339.02 376.311 1346.81 373.112 1355.94 373.112C1365.17 373.112 1372.96 376.311 1379.31 382.707C1385.75 389.152 1388.97 396.818 1388.97 405.705V406.364L1377.26 411.711V405.485C1377.26 399.675 1375.16 394.694 1370.96 390.544C1366.76 386.394 1361.75 384.318 1355.94 384.318C1350.03 384.318 1345 386.394 1340.85 390.544C1336.7 394.646 1334.63 399.626 1334.63 405.485V451.408C1334.63 457.219 1336.7 462.199 1340.85 466.35C1345 470.5 1350.03 472.575 1355.94 472.575C1361.56 472.575 1366.56 470.5 1370.96 466.35C1375.16 462.346 1377.26 457.365 1377.26 451.408V434.343H1355.5L1360.63 422.624H1388.97ZM1419.36 374.577H1478.1L1472.98 386.296H1452.03V470.598H1478.1L1472.98 482.316H1414.24L1419.36 470.598H1440.31V386.296H1414.24L1419.36 374.577ZM1520.95 434.343V470.598H1573.09L1567.97 482.316H1509.23V379.631L1520.95 374.504L1563.57 374.577L1558.45 386.296H1520.95V422.624H1563.57L1558.45 434.343H1520.95ZM1626.55 417.277C1636.08 418.352 1643.86 421.818 1649.92 427.678C1656.36 433.928 1659.59 441.594 1659.59 450.676V450.896C1659.59 460.173 1656.41 467.961 1650.07 474.26C1643.67 480.607 1635.88 483.781 1626.7 483.781C1617.42 483.781 1609.64 480.607 1603.34 474.26C1596.89 467.717 1593.67 460.026 1593.67 451.188V450.236L1605.39 445.109V451.408C1605.39 457.268 1607.49 462.248 1611.69 466.35C1615.89 470.5 1620.89 472.575 1626.7 472.575C1632.61 472.575 1637.64 470.5 1641.79 466.35C1645.94 462.15 1648.01 457.146 1648.01 451.335C1648.01 445.231 1646.01 440.275 1642.01 436.467C1637.42 432.121 1632.41 429.753 1626.99 429.362C1617.72 428.63 1610.44 425.627 1605.17 420.354C1599.7 414.934 1596.96 408.391 1596.96 400.725C1596.96 393.01 1599.65 386.491 1605.02 381.169C1610.39 375.798 1616.89 373.112 1624.5 373.112C1632.22 373.112 1638.74 375.798 1644.06 381.169C1649.48 386.638 1652.19 393.132 1652.19 400.651V401.384L1640.47 406.657V400.871C1640.37 396.33 1638.81 392.57 1635.78 389.592C1632.61 386.467 1628.85 384.904 1624.5 384.904C1620.16 384.904 1616.47 386.418 1613.44 389.445C1610.32 392.619 1608.76 396.379 1608.76 400.725C1608.76 405.07 1610.32 408.806 1613.44 411.931C1616.37 414.86 1620.74 416.643 1626.55 417.277Z"/>
<path fill="#E57F3D" d="M632.255 482.781V385.296H599.296L604.423 373.577H676.933L671.806 385.296H643.974V477.654L632.255 482.781ZM712.889 433.343V469.598H765.037L759.91 481.316H701.17V378.631L712.889 373.504L755.516 373.577L750.389 385.296H712.889V421.624H755.516L750.389 433.343H712.889ZM851.604 444.109V450.188C851.604 459.173 848.381 466.863 841.936 473.26C835.49 479.607 827.702 482.781 818.571 482.781C809.392 482.781 801.604 479.607 795.207 473.26C788.762 466.863 785.539 459.173 785.539 450.188V404.705C785.539 395.721 788.762 388.055 795.207 381.707C801.652 375.311 809.44 372.112 818.571 372.112C827.8 372.112 835.588 375.311 841.936 381.707C848.381 388.152 851.604 395.818 851.604 404.705V405.364L839.885 410.711V404.485C839.885 398.675 837.785 393.694 833.586 389.544C829.387 385.394 824.382 383.318 818.571 383.318C812.663 383.318 807.634 385.394 803.483 389.544C799.333 393.646 797.258 398.626 797.258 404.485V450.408C797.258 456.219 799.333 461.199 803.483 465.35C807.634 469.5 812.663 471.575 818.571 471.575C824.382 471.575 829.387 469.5 833.586 465.35C837.785 461.248 839.885 456.268 839.885 450.408V449.529L851.604 444.109ZM875.768 482.781V377.239L887.486 372.112V421.624H930.113V377.239L941.832 372.112V477.654L930.113 482.781V433.343H887.486V477.654L875.768 482.781ZM965.996 482.781V404.705C965.996 395.721 969.219 388.055 975.664 381.707C982.109 375.311 989.897 372.112 999.028 372.112C1008.16 372.112 1015.95 375.311 1022.39 381.707C1028.84 388.055 1032.06 395.721 1032.06 404.705V477.654L1020.34 482.781V404.485C1020.29 398.626 1018.19 393.646 1014.04 389.544C1009.84 385.394 1004.84 383.318 999.028 383.318C993.169 383.318 988.14 385.394 983.94 389.544C979.79 393.646 977.715 398.553 977.715 404.266C977.715 404.363 977.715 404.437 977.715 404.485V477.654L965.996 482.781ZM1122.29 404.705C1122.29 404.705 1122.29 419.866 1122.29 450.188C1122.29 459.173 1119.07 466.863 1112.62 473.26C1106.18 479.607 1098.39 482.781 1089.26 482.781C1080.08 482.781 1072.29 479.607 1065.89 473.26C1059.45 466.863 1056.22 459.173 1056.22 450.188V404.705C1056.22 395.721 1059.45 388.055 1065.89 381.707C1072.34 375.311 1080.13 372.112 1089.26 372.112C1098.39 372.112 1106.18 375.311 1112.62 381.707C1119.07 388.055 1122.29 395.721 1122.29 404.705ZM1067.94 404.485V450.408C1067.94 456.219 1070.02 461.199 1074.17 465.35C1078.32 469.5 1083.35 471.575 1089.26 471.575C1095.07 471.575 1100.07 469.5 1104.27 465.35C1108.42 461.248 1110.52 456.268 1110.57 450.408V404.485C1110.52 398.626 1108.42 393.646 1104.27 389.544C1100.07 385.394 1095.07 383.318 1089.26 383.318C1083.35 383.318 1078.32 385.394 1074.17 389.544C1070.02 393.646 1067.94 398.626 1067.94 404.485ZM1147.55 377.239L1159.27 372.112V469.598H1211.42L1206.29 481.316H1147.55V377.239ZM1302.75 404.705C1302.75 404.705 1302.75 419.866 1302.75 450.188C1302.75 459.173 1299.52 466.863 1293.08 473.26C1286.63 479.607 1278.84 482.781 1269.71 482.781C1260.53 482.781 1252.75 479.607 1246.35 473.26C1239.9 466.863 1236.68 459.173 1236.68 450.188V404.705C1236.68 395.721 1239.9 388.055 1246.35 381.707C1252.79 375.311 1260.58 372.112 1269.71 372.112C1278.84 372.112 1286.63 375.311 1293.08 381.707C1299.52 388.055 1302.75 395.721 1302.75 404.705ZM1248.4 404.485V450.408C1248.4 456.219 1250.48 461.199 1254.63 465.35C1258.78 469.5 1263.81 471.575 1269.71 471.575C1275.52 471.575 1280.53 469.5 1284.73 465.35C1288.88 461.248 1290.98 456.268 1291.03 450.408V404.485C1290.98 398.626 1288.88 393.646 1284.73 389.544C1280.53 385.394 1275.52 383.318 1269.71 383.318C1263.81 383.318 1258.78 385.394 1254.63 389.544C1250.48 393.646 1248.4 398.626 1248.4 404.485ZM1392.97 421.624V450.188C1392.97 459.173 1389.75 466.863 1383.31 473.26C1376.86 479.607 1369.07 482.781 1359.94 482.781C1350.76 482.781 1342.97 479.607 1336.58 473.26C1330.13 466.863 1326.91 459.173 1326.91 450.188V404.705C1326.91 395.721 1330.13 388.055 1336.58 381.707C1343.02 375.311 1350.81 372.112 1359.94 372.112C1369.17 372.112 1376.96 375.311 1383.31 381.707C1389.75 388.152 1392.97 395.818 1392.97 404.705V405.364L1381.26 410.711V404.485C1381.26 398.675 1379.16 393.694 1374.96 389.544C1370.76 385.394 1365.75 383.318 1359.94 383.318C1354.03 383.318 1349 385.394 1344.85 389.544C1340.7 393.646 1338.63 398.626 1338.63 404.485V450.408C1338.63 456.219 1340.7 461.199 1344.85 465.35C1349 469.5 1354.03 471.575 1359.94 471.575C1365.56 471.575 1370.56 469.5 1374.96 465.35C1379.16 461.346 1381.26 456.365 1381.26 450.408V433.343H1359.5L1364.63 421.624H1392.97ZM1423.36 373.577H1482.1L1476.98 385.296H1456.03V469.598H1482.1L1476.98 481.316H1418.24L1423.36 469.598H1444.31V385.296H1418.24L1423.36 373.577ZM1524.95 433.343V469.598H1577.09L1571.97 481.316H1513.23V378.631L1524.95 373.504L1567.57 373.577L1562.45 385.296H1524.95V421.624H1567.57L1562.45 433.343H1524.95ZM1630.55 416.277C1640.08 417.352 1647.86 420.818 1653.92 426.678C1660.36 432.928 1663.59 440.594 1663.59 449.676V449.896C1663.59 459.173 1660.41 466.961 1654.07 473.26C1647.67 479.607 1639.88 482.781 1630.7 482.781C1621.42 482.781 1613.64 479.607 1607.34 473.26C1600.89 466.717 1597.67 459.026 1597.67 450.188V449.236L1609.39 444.109V450.408C1609.39 456.268 1611.49 461.248 1615.69 465.35C1619.89 469.5 1624.89 471.575 1630.7 471.575C1636.61 471.575 1641.64 469.5 1645.79 465.35C1649.94 461.15 1652.01 456.146 1652.01 450.335C1652.01 444.231 1650.01 439.275 1646.01 435.467C1641.42 431.121 1636.41 428.753 1630.99 428.362C1621.72 427.63 1614.44 424.627 1609.17 419.354C1603.7 413.934 1600.96 407.391 1600.96 399.725C1600.96 392.01 1603.65 385.491 1609.02 380.169C1614.39 374.798 1620.89 372.112 1628.5 372.112C1636.22 372.112 1642.74 374.798 1648.06 380.169C1653.48 385.638 1656.19 392.132 1656.19 399.651V400.384L1644.47 405.657V399.871C1644.37 395.33 1642.81 391.57 1639.78 388.592C1636.61 385.467 1632.85 383.904 1628.5 383.904C1624.16 383.904 1620.47 385.418 1617.44 388.445C1614.32 391.619 1612.76 395.379 1612.76 399.725C1612.76 404.07 1614.32 407.806 1617.44 410.931C1620.37 413.86 1624.74 415.643 1630.55 416.277Z"/>
<defs>
<linearGradient gradientUnits="userSpaceOnUse" y2="551.03" x2="255.383" y1="18.7812" x1="255.383" id="paint0_linear_335_3270">
<stop stop-color="#1C655E"/>
<stop stop-color="#2E9389" offset="1"/>
</linearGradient>
</defs>
</svg>